<svg width="1366" height="96" viewBox="0 0 1366 96" fill="none" xmlns="http://www.w3.org/2000/svg">
<mask id="path-1-inside-1_3126_609" fill="white">
<path d="M0 0H1366V96H0V0Z"/>
</mask>
<path d="M1366 94.5H0V97.5H1366V94.5Z" fill="#16181D" mask="url(#path-1-inside-1_3126_609)"/>
<path d="M205.414 53.3589C205.013 52.6864 205.29 51.815 206.005 51.4968L212.338 48.6778C212.721 48.5074 213.162 48.531 213.525 48.7412L217.144 50.8401C217.505 51.0492 217.744 51.4178 217.788 51.8322L218.527 58.7916C218.609 59.5676 217.997 60.2423 217.217 60.2359L214.289 60.2118C213.501 60.2053 212.898 59.5081 213.006 58.7275L213.591 54.4685C213.639 54.1191 213.471 53.7755 213.165 53.5995C212.859 53.4233 212.477 53.4504 212.199 53.668L208.864 56.2766C208.245 56.7615 207.34 56.5924 206.937 55.9162L205.414 53.3589Z" fill="white"/>
<path fill-rule="evenodd" clip-rule="evenodd" d="M219.167 50.6496L224.764 54.7665C225.081 54.9996 225.531 54.9018 225.722 54.5581L227.172 51.9526C227.363 51.6095 227.211 51.1766 226.847 51.0294L222.881 49.4251C222.307 49.1928 221.931 48.6353 221.931 48.0158C221.931 47.4002 222.302 46.8453 222.871 46.6105L226.851 44.9678C227.213 44.8182 227.363 44.3856 227.171 44.044L225.726 41.4722C225.533 41.1302 225.085 41.0335 224.769 41.266L219.167 45.3864C219 45.5094 218.901 45.7048 218.901 45.9125V50.1234C218.901 50.3312 219 50.5265 219.167 50.6496ZM218.78 51.1758C218.446 50.9296 218.248 50.5389 218.248 50.1234V45.9125C218.248 45.4971 218.446 45.1064 218.78 44.8602L224.382 40.7398C225.014 40.2749 225.911 40.4681 226.295 41.1522L227.74 43.724C228.124 44.4073 227.824 45.2725 227.1 45.5716L223.12 47.2142C222.796 47.3482 222.584 47.6647 222.584 48.0158C222.584 48.3691 222.799 48.6871 223.126 48.8196L227.092 50.4238C227.82 50.7184 228.125 51.5841 227.743 52.2703L226.293 54.8758C225.91 55.5632 225.011 55.7589 224.377 55.2927L218.78 51.1758Z" fill="#2DEBFC"/>
<path d="M217.144 45.1478C217.505 44.9387 217.744 44.5701 217.788 44.1556L218.525 37.2084C218.608 36.4281 217.989 35.7513 217.205 35.7643L214.277 35.8126C213.493 35.8255 212.897 36.5205 213.004 37.2967L213.591 41.5665C213.639 41.9168 213.47 42.2613 213.164 42.4377C212.858 42.6135 212.477 42.5873 212.198 42.3715L208.818 39.7527C208.197 39.2712 207.294 39.4435 206.894 40.12L205.408 42.6306C205.01 43.3029 205.287 44.1718 206.001 44.4895L212.338 47.3101C212.721 47.4805 213.163 47.4569 213.525 47.2467L217.144 45.1478Z" fill="#2C85FC"/>
<path d="M248.073 46.9063V55.4087H251.236V44.5733H246.629V46.9063H248.073Z" fill="white"/>
<path d="M247.974 43.0508C248.264 43.354 248.705 43.5055 249.298 43.5055C249.892 43.5055 250.326 43.354 250.603 43.0508C250.893 42.7344 251.038 42.3389 251.038 41.8645C251.038 41.3767 250.893 40.9812 250.603 40.6781C250.326 40.3618 249.892 40.2036 249.298 40.2036C248.705 40.2036 248.264 40.3618 247.974 40.6781C247.697 40.9812 247.558 41.3767 247.558 41.8645C247.558 42.3389 247.697 42.7344 247.974 43.0508Z" fill="white"/>
<path d="M272.67 55.358C272.96 55.6612 273.402 55.8127 273.995 55.8127C274.588 55.8127 275.023 55.6612 275.299 55.358C275.59 55.0416 275.734 54.6461 275.734 54.1717C275.734 53.6839 275.59 53.2884 275.299 52.9853C275.023 52.669 274.588 52.5108 273.995 52.5108C273.402 52.5108 272.96 52.669 272.67 52.9853C272.393 53.2884 272.255 53.6839 272.255 54.1717C272.255 54.6461 272.393 55.0416 272.67 55.358Z" fill="white"/>
<path d="M237.06 55.1712C237.956 55.5798 239.056 55.7842 240.361 55.7842C241.587 55.7842 242.642 55.5932 243.525 55.2107C244.408 54.8286 245.087 54.2946 245.561 53.6094C246.049 52.9105 246.293 52.0998 246.293 51.1771C246.293 50.2809 246.063 49.5229 245.601 48.9033C245.153 48.2706 244.527 47.7763 243.723 47.4205C242.918 47.0513 241.989 46.8206 240.935 46.7285L239.828 46.6296C239.168 46.5767 238.694 46.3989 238.404 46.0956C238.114 45.7925 237.969 45.4366 237.969 45.0281C237.969 44.7115 238.048 44.4217 238.206 44.158C238.364 43.8812 238.601 43.6637 238.918 43.5055C239.247 43.3474 239.65 43.2683 240.124 43.2683C240.625 43.2683 241.04 43.3604 241.37 43.5451C241.442 43.5841 241.511 43.6258 241.576 43.6701L241.591 43.6811C241.616 43.6978 241.64 43.7151 241.663 43.7326C241.863 43.8856 242.022 44.067 242.141 44.2766C242.312 44.5667 242.398 44.8895 242.398 45.2455H245.561C245.561 44.2964 245.344 43.4725 244.909 42.7739C244.474 42.0622 243.848 41.5151 243.031 41.1327C242.226 40.7373 241.258 40.5396 240.124 40.5396C239.043 40.5396 238.107 40.7242 237.316 41.0933C236.526 41.4492 235.906 41.9633 235.458 42.6354C235.023 43.3077 234.805 44.1053 234.805 45.0281C234.805 46.3066 235.234 47.3347 236.091 48.1125C236.947 48.8903 238.094 49.3384 239.531 49.457L240.619 49.5559C241.501 49.635 242.141 49.813 242.536 50.0897C242.932 50.3533 243.129 50.7158 243.129 51.1771C243.129 51.3892 243.095 51.588 243.025 51.7738C242.974 51.9117 242.903 52.0423 242.813 52.1658C242.602 52.4428 242.292 52.66 241.884 52.8184C241.475 52.9764 240.968 53.0555 240.361 53.0555C239.689 53.0555 239.142 52.9634 238.72 52.7788C238.298 52.5809 237.982 52.3239 237.771 52.0077C237.573 51.6912 237.475 51.3486 237.475 50.9794H234.331C234.331 51.9153 234.561 52.7458 235.023 53.4709C235.484 54.1826 236.163 54.7496 237.06 55.1712Z" fill="white"/>
<path d="M279.883 55.1712C280.779 55.5798 281.88 55.7842 283.184 55.7842C284.41 55.7842 285.465 55.5932 286.348 55.2107C287.231 54.8286 287.91 54.2946 288.385 53.6094C288.872 52.9105 289.116 52.0998 289.116 51.1771C289.116 50.2809 288.886 49.5229 288.424 48.9033C287.976 48.2706 287.35 47.7763 286.546 47.4205C285.742 47.0513 284.812 46.8206 283.758 46.7285L282.651 46.6296C281.992 46.5767 281.517 46.3989 281.227 46.0956C280.937 45.7925 280.792 45.4366 280.792 45.0281C280.792 44.7115 280.871 44.4217 281.029 44.158C281.188 43.8812 281.425 43.6637 281.741 43.5055C282.071 43.3474 282.473 43.2683 282.947 43.2683C283.448 43.2683 283.863 43.3604 284.193 43.5451C284.265 43.5841 284.334 43.6258 284.399 43.6701L284.415 43.6811C284.439 43.6978 284.463 43.7151 284.486 43.7326C284.686 43.8856 284.845 44.067 284.964 44.2766C285.135 44.5667 285.221 44.8895 285.221 45.2455H288.385C288.385 44.2964 288.167 43.4725 287.732 42.7739C287.297 42.0622 286.671 41.5151 285.854 41.1327C285.05 40.7373 284.081 40.5396 282.947 40.5396C281.866 40.5396 280.93 40.7242 280.139 41.0933C279.349 41.4492 278.729 41.9633 278.281 42.6354C277.846 43.3077 277.628 44.1053 277.628 45.0281C277.628 46.3066 278.057 47.3347 278.914 48.1125C279.77 48.8903 280.917 49.3384 282.354 49.457L283.442 49.5559C284.325 49.635 284.964 49.813 285.36 50.0897C285.755 50.3533 285.953 50.7158 285.953 51.1771C285.953 51.3892 285.918 51.588 285.848 51.7738C285.797 51.9117 285.726 52.0423 285.636 52.1658C285.425 52.4428 285.116 52.66 284.707 52.8184C284.298 52.9764 283.791 53.0555 283.184 53.0555C282.512 53.0555 281.965 52.9634 281.544 52.7788C281.122 52.5809 280.805 52.3239 280.594 52.0077C280.396 51.6912 280.298 51.3486 280.298 50.9794H277.154C277.154 51.9153 277.385 52.7458 277.846 53.4709C278.307 54.1826 278.986 54.7496 279.883 55.1712Z" fill="white"/>
<path d="M258.295 55.5468C257.201 55.5468 256.317 55.4152 255.645 55.1513C254.973 54.8746 254.479 54.42 254.162 53.7874C253.859 53.1414 253.708 52.2713 253.708 51.1771V46.8865H252.066V44.5732H253.708V41.6469H256.654V44.5732H259.817V46.8865H256.654V51.2959C256.654 51.81 256.785 52.2053 257.049 52.482C257.326 52.7458 257.715 52.8775 258.216 52.8775H259.817V55.5468H258.295Z" fill="white"/>
<path d="M307.551 55.5468C306.457 55.5468 305.573 55.4152 304.901 55.1513C304.229 54.8746 303.735 54.42 303.418 53.7874C303.115 53.1414 302.964 52.2713 302.964 51.1771V46.8865H301.322V44.5732H302.964V41.6469H305.91V44.5732H309.073V46.8865H305.91V51.2959C305.91 51.81 306.042 52.2053 306.305 52.482C306.582 52.7458 306.971 52.8775 307.472 52.8775H309.073V55.5468H307.551Z" fill="white"/>
<path fill-rule="evenodd" clip-rule="evenodd" d="M263.626 55.3097C264.338 55.6262 265.155 55.7843 266.078 55.7843C266.987 55.7843 267.792 55.6262 268.49 55.3097C269.189 54.9933 269.769 54.5517 270.23 53.985C270.692 53.4181 271.001 52.7724 271.159 52.0473H268.253C268.121 52.3769 267.871 52.6535 267.502 52.8775C267.133 53.1019 266.658 53.2139 266.078 53.2139C265.719 53.2139 265.398 53.1715 265.115 53.0862C264.9 53.0216 264.707 52.9324 264.536 52.8184C264.14 52.5549 263.85 52.1855 263.666 51.7112C263.614 51.576 263.571 51.4346 263.534 51.2874C263.496 51.1382 263.466 50.983 263.443 50.8214H271.357V49.7537C271.357 48.765 271.146 47.8555 270.724 47.0251C270.303 46.1813 269.69 45.5025 268.886 44.9885C268.095 44.4612 267.119 44.1976 265.959 44.1976C265.076 44.1976 264.285 44.3558 263.586 44.6722C262.901 44.9752 262.328 45.3905 261.866 45.9177C261.405 46.445 261.049 47.0449 260.798 47.7172C260.561 48.3761 260.443 49.0681 260.443 49.7931V50.1886C260.443 50.8873 260.561 51.5727 260.798 52.2449C261.049 52.904 261.405 53.5036 261.866 54.0442C262.341 54.5716 262.927 54.9933 263.626 55.3097ZM263.497 48.8663C263.506 48.8244 263.515 48.7832 263.526 48.7426C263.553 48.6308 263.585 48.5237 263.621 48.4213C263.641 48.363 263.662 48.3062 263.686 48.251C263.883 47.7632 264.173 47.3942 264.555 47.1437C264.698 47.0501 264.853 46.974 265.019 46.9154C265.299 46.8172 265.613 46.768 265.959 46.768C266.5 46.768 266.948 46.8933 267.304 47.1437C267.673 47.3809 267.95 47.7302 268.134 48.1916C268.149 48.2288 268.163 48.2667 268.177 48.3051C268.199 48.3662 268.219 48.429 268.238 48.4933C268.266 48.5889 268.29 48.688 268.312 48.7903C268.328 48.8658 268.341 48.943 268.353 49.0221H263.467C263.476 48.9693 263.486 48.9174 263.497 48.8663Z" fill="white"/>
<path fill-rule="evenodd" clip-rule="evenodd" d="M293.075 55.3097C293.786 55.6262 294.604 55.7843 295.527 55.7843C296.436 55.7843 297.24 55.6262 297.939 55.3097C298.637 54.9933 299.217 54.5517 299.679 53.985C300.14 53.4181 300.45 52.7724 300.608 52.0473H297.701C297.57 52.3769 297.319 52.6535 296.95 52.8775C296.581 53.1019 296.106 53.2139 295.527 53.2139C295.167 53.2139 294.846 53.1715 294.563 53.0862C294.348 53.0216 294.155 52.9324 293.984 52.8184C293.589 52.5549 293.299 52.1855 293.114 51.7112C293.063 51.576 293.019 51.4346 292.982 51.2874C292.945 51.1382 292.914 50.983 292.892 50.8214H300.806V49.7537C300.806 48.765 300.595 47.8555 300.173 47.0251C299.751 46.1813 299.138 45.5025 298.334 44.9885C297.543 44.4612 296.568 44.1976 295.408 44.1976C294.525 44.1976 293.734 44.3558 293.035 44.6722C292.35 44.9752 291.777 45.3905 291.315 45.9177C290.854 46.445 290.498 47.0449 290.247 47.7172C290.01 48.3761 289.891 49.0681 289.891 49.7931V50.1886C289.891 50.8873 290.01 51.5727 290.247 52.2449C290.498 52.904 290.854 53.5036 291.315 54.0442C291.79 54.5716 292.376 54.9933 293.075 55.3097ZM292.946 48.8663C292.955 48.8244 292.964 48.7832 292.974 48.7426C293.002 48.6308 293.033 48.5237 293.069 48.4213C293.089 48.363 293.111 48.3062 293.134 48.251C293.332 47.7632 293.622 47.3942 294.004 47.1437C294.147 47.0501 294.302 46.974 294.468 46.9154C294.748 46.8172 295.061 46.768 295.408 46.768C295.949 46.768 296.396 46.8933 296.752 47.1437C297.121 47.3809 297.398 47.7302 297.583 48.1916C297.598 48.2288 297.612 48.2667 297.626 48.3051C297.648 48.3662 297.668 48.429 297.687 48.4933C297.714 48.5889 297.739 48.688 297.761 48.7903C297.776 48.8658 297.79 48.943 297.802 49.0221H292.916C292.925 48.9693 292.935 48.9174 292.946 48.8663Z" fill="white"/>
<path d="M950.119 53.5V43.3182H951.655V47.7429H956.731V43.3182H958.272V53.5H956.731V49.0604H951.655V53.5H950.119ZM963.607 53.6541C962.891 53.6541 962.266 53.4901 961.732 53.1619C961.199 52.8338 960.784 52.3748 960.489 51.7848C960.194 51.1948 960.047 50.5054 960.047 49.7166C960.047 48.9245 960.194 48.2318 960.489 47.6385C960.784 47.0452 961.199 46.5845 961.732 46.2564C962.266 45.9283 962.891 45.7642 963.607 45.7642C964.322 45.7642 964.947 45.9283 965.481 46.2564C966.014 46.5845 966.429 47.0452 966.724 47.6385C967.019 48.2318 967.166 48.9245 967.166 49.7166C967.166 50.5054 967.019 51.1948 966.724 51.7848C966.429 52.3748 966.014 52.8338 965.481 53.1619C964.947 53.4901 964.322 53.6541 963.607 53.6541ZM963.612 52.4062C964.076 52.4062 964.46 52.2836 964.765 52.0384C965.07 51.7931 965.295 51.4666 965.441 51.0589C965.59 50.6513 965.665 50.2022 965.665 49.7116C965.665 49.2244 965.59 48.777 965.441 48.3693C965.295 47.9583 965.07 47.6286 964.765 47.38C964.46 47.1314 964.076 47.0071 963.612 47.0071C963.144 47.0071 962.756 47.1314 962.448 47.38C962.143 47.6286 961.916 47.9583 961.767 48.3693C961.621 48.777 961.548 49.2244 961.548 49.7116C961.548 50.2022 961.621 50.6513 961.767 51.0589C961.916 51.4666 962.143 51.7931 962.448 52.0384C962.756 52.2836 963.144 52.4062 963.612 52.4062ZM968.825 53.5V45.8636H970.252V47.1065H970.347C970.506 46.6856 970.766 46.3575 971.127 46.1222C971.489 45.8835 971.921 45.7642 972.425 45.7642C972.935 45.7642 973.363 45.8835 973.708 46.1222C974.056 46.3608 974.312 46.6889 974.478 47.1065H974.558C974.74 46.6989 975.03 46.3741 975.428 46.1321C975.825 45.8868 976.299 45.7642 976.85 45.7642C977.542 45.7642 978.107 45.9813 978.545 46.4155C978.986 46.8497 979.206 47.5043 979.206 48.3793V53.5H977.72V48.5185C977.72 48.0014 977.579 47.6269 977.297 47.3949C977.015 47.1629 976.679 47.0469 976.288 47.0469C975.804 47.0469 975.428 47.196 975.159 47.4943C974.891 47.7893 974.757 48.1688 974.757 48.6328V53.5H973.275V48.424C973.275 48.0097 973.146 47.6766 972.887 47.4247C972.629 47.1728 972.292 47.0469 971.878 47.0469C971.596 47.0469 971.336 47.1214 971.097 47.2706C970.862 47.4164 970.672 47.6203 970.526 47.8821C970.383 48.1439 970.312 48.4472 970.312 48.7919V53.5H968.825ZM984.49 53.6541C983.737 53.6541 983.089 53.4934 982.546 53.1719C982.006 52.8471 981.588 52.3913 981.293 51.8047C981.001 51.2147 980.855 50.5237 980.855 49.7315C980.855 48.9493 981.001 48.2599 981.293 47.6634C981.588 47.0668 981.999 46.6011 982.526 46.2663C983.056 45.9316 983.676 45.7642 984.385 45.7642C984.816 45.7642 985.234 45.8355 985.638 45.978C986.042 46.1205 986.405 46.3442 986.727 46.6491C987.048 46.9541 987.302 47.3501 987.488 47.8374C987.673 48.3213 987.766 48.9096 987.766 49.6023V50.1293H981.696V49.0156H986.309C986.309 48.6245 986.23 48.2782 986.071 47.9766C985.912 47.6716 985.688 47.4313 985.4 47.2557C985.114 47.08 984.78 46.9922 984.395 46.9922C983.978 46.9922 983.613 47.0949 983.301 47.3004C982.993 47.5026 982.755 47.7678 982.586 48.0959C982.42 48.4207 982.337 48.7737 982.337 49.1548V50.0249C982.337 50.5353 982.426 50.9695 982.605 51.3274C982.788 51.6854 983.041 51.9588 983.366 52.1477C983.691 52.3333 984.07 52.4261 984.505 52.4261C984.786 52.4261 985.043 52.3864 985.275 52.3068C985.507 52.224 985.708 52.1013 985.877 51.9389C986.046 51.7765 986.175 51.576 986.265 51.3374L987.672 51.5909C987.559 52.0052 987.357 52.3681 987.065 52.6797C986.777 52.9879 986.414 53.2282 985.976 53.4006C985.542 53.5696 985.047 53.6541 984.49 53.6541Z" fill="#2C85FC"/>
<path d="M1018.12 53.5V43.3182H1021.85C1022.57 43.3182 1023.17 43.4375 1023.64 43.6761C1024.12 43.9115 1024.47 44.2313 1024.71 44.6357C1024.94 45.0367 1025.06 45.4891 1025.06 45.9929C1025.06 46.4171 1024.98 46.7751 1024.83 47.0668C1024.67 47.3551 1024.46 47.5871 1024.2 47.7628C1023.94 47.9351 1023.66 48.0611 1023.34 48.1406V48.2401C1023.68 48.2566 1024.01 48.366 1024.33 48.5682C1024.66 48.767 1024.93 49.0504 1025.14 49.4183C1025.35 49.7862 1025.46 50.2337 1025.46 50.7607C1025.46 51.281 1025.33 51.7483 1025.09 52.1626C1024.85 52.5736 1024.47 52.9001 1023.97 53.142C1023.46 53.3807 1022.81 53.5 1022.02 53.5H1018.12ZM1019.65 52.1825H1021.87C1022.61 52.1825 1023.13 52.04 1023.45 51.755C1023.77 51.4699 1023.93 51.1136 1023.93 50.6861C1023.93 50.3646 1023.85 50.0696 1023.69 49.8011C1023.52 49.5327 1023.29 49.3189 1022.99 49.1598C1022.69 49.0007 1022.34 48.9212 1021.93 48.9212H1019.65V52.1825ZM1019.65 47.723H1021.71C1022.06 47.723 1022.37 47.6567 1022.64 47.5241C1022.92 47.3916 1023.14 47.206 1023.3 46.9673C1023.47 46.7254 1023.55 46.4403 1023.55 46.1122C1023.55 45.6913 1023.41 45.3383 1023.11 45.0533C1022.82 44.7682 1022.36 44.6257 1021.75 44.6257H1019.65V47.723ZM1028.65 43.3182V53.5H1027.16V43.3182H1028.65ZM1033.86 53.6541C1033.15 53.6541 1032.52 53.4901 1031.99 53.1619C1031.45 52.8338 1031.04 52.3748 1030.75 51.7848C1030.45 51.1948 1030.3 50.5054 1030.3 49.7166C1030.3 48.9245 1030.45 48.2318 1030.75 47.6385C1031.04 47.0452 1031.45 46.5845 1031.99 46.2564C1032.52 45.9283 1033.15 45.7642 1033.86 45.7642C1034.58 45.7642 1035.2 45.9283 1035.74 46.2564C1036.27 46.5845 1036.68 47.0452 1036.98 47.6385C1037.27 48.2318 1037.42 48.9245 1037.42 49.7166C1037.42 50.5054 1037.27 51.1948 1036.98 51.7848C1036.68 52.3748 1036.27 52.8338 1035.74 53.1619C1035.2 53.4901 1034.58 53.6541 1033.86 53.6541ZM1033.87 52.4062C1034.33 52.4062 1034.72 52.2836 1035.02 52.0384C1035.33 51.7931 1035.55 51.4666 1035.7 51.0589C1035.85 50.6513 1035.92 50.2022 1035.92 49.7116C1035.92 49.2244 1035.85 48.777 1035.7 48.3693C1035.55 47.9583 1035.33 47.6286 1035.02 47.38C1034.72 47.1314 1034.33 47.0071 1033.87 47.0071C1033.4 47.0071 1033.01 47.1314 1032.7 47.38C1032.4 47.6286 1032.17 47.9583 1032.02 48.3693C1031.88 48.777 1031.8 49.2244 1031.8 49.7116C1031.8 50.2022 1031.88 50.6513 1032.02 51.0589C1032.17 51.4666 1032.4 51.7931 1032.7 52.0384C1033.01 52.2836 1033.4 52.4062 1033.87 52.4062ZM1042.28 56.5227C1041.68 56.5227 1041.15 56.4432 1040.72 56.2841C1040.28 56.125 1039.93 55.9145 1039.65 55.6527C1039.38 55.3909 1039.17 55.1042 1039.04 54.7926L1040.31 54.2656C1040.4 54.4115 1040.52 54.5656 1040.67 54.728C1040.82 54.8937 1041.03 55.0346 1041.29 55.1506C1041.55 55.2666 1041.89 55.3246 1042.3 55.3246C1042.86 55.3246 1043.33 55.187 1043.69 54.9119C1044.06 54.6402 1044.25 54.206 1044.25 53.6094V52.108H1044.15C1044.06 52.2704 1043.93 52.451 1043.76 52.6499C1043.6 52.8487 1043.37 53.0211 1043.08 53.1669C1042.79 53.3127 1042.41 53.3857 1041.94 53.3857C1041.34 53.3857 1040.79 53.2448 1040.31 52.9631C1039.83 52.678 1039.45 52.2588 1039.17 51.7053C1038.89 51.1484 1038.75 50.464 1038.75 49.652C1038.75 48.84 1038.89 48.1439 1039.16 47.5639C1039.44 46.9839 1039.82 46.5398 1040.3 46.2315C1040.79 45.92 1041.34 45.7642 1041.95 45.7642C1042.42 45.7642 1042.81 45.8438 1043.1 46.0028C1043.39 46.1586 1043.62 46.3409 1043.78 46.5497C1043.95 46.7585 1044.07 46.9425 1044.16 47.1016H1044.27V45.8636H1045.73V53.669C1045.73 54.3253 1045.58 54.8639 1045.27 55.2848C1044.97 55.7057 1044.55 56.0173 1044.03 56.2195C1043.52 56.4216 1042.93 56.5227 1042.28 56.5227ZM1042.27 52.1527C1042.7 52.1527 1043.06 52.0533 1043.35 51.8544C1043.65 51.6522 1043.88 51.3639 1044.03 50.9893C1044.18 50.6115 1044.26 50.1591 1044.26 49.6321C1044.26 49.1184 1044.19 48.666 1044.03 48.2749C1043.88 47.8838 1043.66 47.5788 1043.36 47.3601C1043.07 47.138 1042.7 47.027 1042.27 47.027C1041.82 47.027 1041.45 47.143 1041.15 47.375C1040.85 47.6037 1040.63 47.9152 1040.47 48.3097C1040.32 48.7041 1040.25 49.1449 1040.25 49.6321C1040.25 50.1326 1040.33 50.5717 1040.48 50.9496C1040.63 51.3274 1040.86 51.6224 1041.15 51.8345C1041.46 52.0466 1041.83 52.1527 1042.27 52.1527Z" fill="#E9EAEC"/>
<rect x="1073" y="30" width="93" height="36" rx="18" fill="#E9EAEC"/>
<path d="M1098.58 46.6293H1097.02C1096.96 46.2978 1096.85 46.0062 1096.69 45.7543C1096.53 45.5024 1096.33 45.2886 1096.09 45.1129C1095.86 44.9373 1095.6 44.8047 1095.3 44.7152C1095.02 44.6257 1094.71 44.581 1094.38 44.581C1093.8 44.581 1093.27 44.7285 1092.81 45.0234C1092.35 45.3184 1091.98 45.7509 1091.71 46.321C1091.45 46.8911 1091.32 47.5871 1091.32 48.4091C1091.32 49.2377 1091.45 49.937 1091.71 50.5071C1091.98 51.0772 1092.35 51.508 1092.81 51.7997C1093.28 52.0914 1093.8 52.2372 1094.38 52.2372C1094.7 52.2372 1095.01 52.1941 1095.29 52.108C1095.59 52.0185 1095.85 51.8875 1096.08 51.7152C1096.32 51.5429 1096.52 51.3324 1096.68 51.0838C1096.85 50.8319 1096.96 50.5436 1097.02 50.2188L1098.58 50.2237C1098.49 50.7242 1098.33 51.1849 1098.09 51.6058C1097.86 52.0234 1097.55 52.3847 1097.18 52.6896C1096.82 52.9912 1096.39 53.2249 1095.92 53.3906C1095.45 53.5563 1094.93 53.6392 1094.37 53.6392C1093.49 53.6392 1092.7 53.4304 1092.01 53.0128C1091.32 52.5919 1090.78 51.9903 1090.38 51.2081C1089.99 50.4259 1089.79 49.4929 1089.79 48.4091C1089.79 47.322 1089.99 46.389 1090.39 45.6101C1090.78 44.8279 1091.33 44.228 1092.02 43.8104C1092.71 43.3894 1093.49 43.179 1094.37 43.179C1094.91 43.179 1095.41 43.2569 1095.88 43.4126C1096.35 43.5651 1096.77 43.7905 1097.15 44.0888C1097.52 44.3838 1097.83 44.745 1098.08 45.1726C1098.32 45.5968 1098.49 46.0824 1098.58 46.6293ZM1103.51 53.6541C1102.79 53.6541 1102.17 53.4901 1101.64 53.1619C1101.1 52.8338 1100.69 52.3748 1100.39 51.7848C1100.1 51.1948 1099.95 50.5054 1099.95 49.7166C1099.95 48.9245 1100.1 48.2318 1100.39 47.6385C1100.69 47.0452 1101.1 46.5845 1101.64 46.2564C1102.17 45.9283 1102.79 45.7642 1103.51 45.7642C1104.23 45.7642 1104.85 45.9283 1105.39 46.2564C1105.92 46.5845 1106.33 47.0452 1106.63 47.6385C1106.92 48.2318 1107.07 48.9245 1107.07 49.7166C1107.07 50.5054 1106.92 51.1948 1106.63 51.7848C1106.33 52.3748 1105.92 52.8338 1105.39 53.1619C1104.85 53.4901 1104.23 53.6541 1103.51 53.6541ZM1103.52 52.4062C1103.98 52.4062 1104.36 52.2836 1104.67 52.0384C1104.97 51.7931 1105.2 51.4666 1105.35 51.0589C1105.49 50.6513 1105.57 50.2022 1105.57 49.7116C1105.57 49.2244 1105.49 48.777 1105.35 48.3693C1105.2 47.9583 1104.97 47.6286 1104.67 47.38C1104.36 47.1314 1103.98 47.0071 1103.52 47.0071C1103.05 47.0071 1102.66 47.1314 1102.35 47.38C1102.05 47.6286 1101.82 47.9583 1101.67 48.3693C1101.53 48.777 1101.45 49.2244 1101.45 49.7116C1101.45 50.2022 1101.53 50.6513 1101.67 51.0589C1101.82 51.4666 1102.05 51.7931 1102.35 52.0384C1102.66 52.2836 1103.05 52.4062 1103.52 52.4062ZM1108.73 53.5V45.8636H1110.16V47.1065H1110.25C1110.41 46.6856 1110.67 46.3575 1111.03 46.1222C1111.39 45.8835 1111.83 45.7642 1112.33 45.7642C1112.84 45.7642 1113.27 45.8835 1113.61 46.1222C1113.96 46.3608 1114.22 46.6889 1114.38 47.1065H1114.46C1114.64 46.6989 1114.93 46.3741 1115.33 46.1321C1115.73 45.8868 1116.2 45.7642 1116.75 45.7642C1117.45 45.7642 1118.01 45.9813 1118.45 46.4155C1118.89 46.8497 1119.11 47.5043 1119.11 48.3793V53.5H1117.62V48.5185C1117.62 48.0014 1117.48 47.6269 1117.2 47.3949C1116.92 47.1629 1116.58 47.0469 1116.19 47.0469C1115.71 47.0469 1115.33 47.196 1115.06 47.4943C1114.8 47.7893 1114.66 48.1688 1114.66 48.6328V53.5H1113.18V48.424C1113.18 48.0097 1113.05 47.6766 1112.79 47.4247C1112.53 47.1728 1112.2 47.0469 1111.78 47.0469C1111.5 47.0469 1111.24 47.1214 1111 47.2706C1110.77 47.4164 1110.58 47.6203 1110.43 47.8821C1110.29 48.1439 1110.22 48.4472 1110.22 48.7919V53.5H1108.73ZM1124.39 53.6541C1123.64 53.6541 1122.99 53.4934 1122.45 53.1719C1121.91 52.8471 1121.49 52.3913 1121.2 51.8047C1120.91 51.2147 1120.76 50.5237 1120.76 49.7315C1120.76 48.9493 1120.91 48.2599 1121.2 47.6634C1121.49 47.0668 1121.9 46.6011 1122.43 46.2663C1122.96 45.9316 1123.58 45.7642 1124.29 45.7642C1124.72 45.7642 1125.14 45.8355 1125.54 45.978C1125.95 46.1205 1126.31 46.3442 1126.63 46.6491C1126.95 46.9541 1127.21 47.3501 1127.39 47.8374C1127.58 48.3213 1127.67 48.9096 1127.67 49.6023V50.1293H1121.6V49.0156H1126.21C1126.21 48.6245 1126.13 48.2782 1125.97 47.9766C1125.82 47.6716 1125.59 47.4313 1125.3 47.2557C1125.02 47.08 1124.68 46.9922 1124.3 46.9922C1123.88 46.9922 1123.52 47.0949 1123.21 47.3004C1122.9 47.5026 1122.66 47.7678 1122.49 48.0959C1122.32 48.4207 1122.24 48.7737 1122.24 49.1548V50.0249C1122.24 50.5353 1122.33 50.9695 1122.51 51.3274C1122.69 51.6854 1122.95 51.9588 1123.27 52.1477C1123.6 52.3333 1123.97 52.4261 1124.41 52.4261C1124.69 52.4261 1124.95 52.3864 1125.18 52.3068C1125.41 52.224 1125.61 52.1013 1125.78 51.9389C1125.95 51.7765 1126.08 51.576 1126.17 51.3374L1127.58 51.5909C1127.46 52.0052 1127.26 52.3681 1126.97 52.6797C1126.68 52.9879 1126.32 53.2282 1125.88 53.4006C1125.45 53.5696 1124.95 53.6541 1124.39 53.6541ZM1132.54 53.6541C1131.8 53.6541 1131.16 53.4867 1130.63 53.152C1130.1 52.8139 1129.69 52.3482 1129.4 51.755C1129.12 51.1617 1128.98 50.4822 1128.98 49.7166C1128.98 48.9411 1129.12 48.2566 1129.41 47.6634C1129.71 47.0668 1130.12 46.6011 1130.65 46.2663C1131.18 45.9316 1131.8 45.7642 1132.52 45.7642C1133.1 45.7642 1133.62 45.8719 1134.07 46.0874C1134.53 46.2995 1134.89 46.5978 1135.17 46.9822C1135.45 47.3667 1135.62 47.8158 1135.67 48.3295H1134.23C1134.15 47.9716 1133.96 47.6634 1133.68 47.4048C1133.4 47.1463 1133.02 47.017 1132.55 47.017C1132.13 47.017 1131.77 47.1264 1131.46 47.3452C1131.15 47.5606 1130.91 47.8688 1130.74 48.2699C1130.56 48.6676 1130.48 49.1383 1130.48 49.6818C1130.48 50.2386 1130.56 50.7192 1130.73 51.1236C1130.9 51.5279 1131.14 51.8411 1131.45 52.0632C1131.76 52.2853 1132.13 52.3963 1132.55 52.3963C1132.83 52.3963 1133.08 52.3449 1133.31 52.2422C1133.54 52.1361 1133.74 51.9853 1133.89 51.7898C1134.05 51.5942 1134.16 51.3589 1134.23 51.0838H1135.67C1135.62 51.5777 1135.46 52.0185 1135.19 52.4062C1134.92 52.794 1134.56 53.099 1134.11 53.321C1133.66 53.5431 1133.14 53.6541 1132.54 53.6541ZM1132 53.4602H1132.97L1132.89 53.8679C1133.18 53.9143 1133.43 54.0303 1133.65 54.2159C1133.87 54.4015 1133.97 54.6816 1133.97 55.0561C1133.98 55.5036 1133.78 55.8665 1133.39 56.1449C1133 56.4233 1132.44 56.5625 1131.71 56.5625L1131.68 55.7322C1132.02 55.7322 1132.3 55.6825 1132.51 55.5831C1132.73 55.4837 1132.84 55.3229 1132.84 55.1009C1132.84 54.8788 1132.76 54.723 1132.59 54.6335C1132.43 54.544 1132.16 54.4811 1131.8 54.4446L1132 53.4602ZM1139.49 53.669C1139 53.669 1138.56 53.5795 1138.17 53.4006C1137.78 53.2183 1137.47 52.9548 1137.24 52.6101C1137.02 52.2654 1136.91 51.8428 1136.91 51.3423C1136.91 50.9115 1136.99 50.5568 1137.15 50.2784C1137.32 50 1137.54 49.7796 1137.82 49.6172C1138.11 49.4548 1138.42 49.3321 1138.77 49.2493C1139.12 49.1664 1139.47 49.1035 1139.83 49.0604C1140.29 49.0073 1140.66 48.9643 1140.95 48.9311C1141.23 48.8946 1141.44 48.8366 1141.57 48.7571C1141.7 48.6776 1141.76 48.5483 1141.76 48.3693V48.3345C1141.76 47.9003 1141.64 47.5639 1141.39 47.3253C1141.15 47.0866 1140.79 46.9673 1140.31 46.9673C1139.81 46.9673 1139.42 47.0784 1139.13 47.3004C1138.84 47.5192 1138.65 47.7628 1138.54 48.0312L1137.14 47.7131C1137.3 47.2491 1137.55 46.8745 1137.86 46.5895C1138.19 46.3011 1138.56 46.0923 1138.97 45.9631C1139.39 45.8305 1139.83 45.7642 1140.29 45.7642C1140.6 45.7642 1140.92 45.8007 1141.26 45.8736C1141.6 45.9432 1141.93 46.0724 1142.22 46.2614C1142.53 46.4503 1142.77 46.7204 1142.97 47.0717C1143.16 47.4197 1143.25 47.8722 1143.25 48.429V53.5H1141.8V52.456H1141.74C1141.65 52.6482 1141.5 52.8371 1141.31 53.0227C1141.12 53.2083 1140.87 53.3625 1140.57 53.4851C1140.27 53.6077 1139.91 53.669 1139.49 53.669ZM1139.81 52.4759C1140.22 52.4759 1140.57 52.3946 1140.86 52.2322C1141.16 52.0698 1141.38 51.8577 1141.53 51.5959C1141.69 51.3307 1141.77 51.0473 1141.77 50.7457V49.7614C1141.71 49.8144 1141.61 49.8641 1141.46 49.9105C1141.31 49.9536 1141.14 49.9917 1140.95 50.0249C1140.75 50.0547 1140.57 50.0829 1140.39 50.1094C1140.2 50.1326 1140.05 50.1525 1139.93 50.169C1139.64 50.2055 1139.38 50.2668 1139.14 50.353C1138.9 50.4392 1138.71 50.5634 1138.57 50.7259C1138.43 50.8849 1138.36 51.0971 1138.36 51.3622C1138.36 51.7301 1138.5 52.0085 1138.77 52.1974C1139.04 52.383 1139.39 52.4759 1139.81 52.4759ZM1145.23 53.5V45.8636H1146.67V47.0767H1146.75C1146.89 46.6657 1147.13 46.3426 1147.49 46.1072C1147.84 45.8686 1148.24 45.7493 1148.69 45.7493C1148.78 45.7493 1148.89 45.7526 1149.02 45.7592C1149.15 45.7659 1149.25 45.7741 1149.32 45.7841V47.206C1149.26 47.1894 1149.15 47.1712 1149 47.1513C1148.85 47.1281 1148.7 47.1165 1148.54 47.1165C1148.19 47.1165 1147.88 47.1911 1147.61 47.3402C1147.33 47.486 1147.12 47.6899 1146.96 47.9517C1146.8 48.2102 1146.72 48.5052 1146.72 48.8366V53.5H1145.23Z" fill="#0B0C0F"/>
</svg>
